<svg width="64" height="64" viewBox="0 0 64 64" fill="none" xmlns="http://www.w3.org/2000/svg">
  <rect width="64" height="64" rx="12" fill="#007396"/>
  <path d="M16 20v24h32V20H16z" fill="white"/>
  <path d="M20 24h8v4h-4v4h4v4h-8V24z" fill="#007396"/>
  <path d="M32 24c0-2.2 1.8-4 4-4s4 1.8 4 4v4c0 .6-.4 1-1 1s-1-.4-1-1v-4c0-1.1-.9-2-2-2s-2 .9-2 2v8c0 1.1.9 2 2 2s2-.9 2-2v-2h2v2c0 2.2-1.8 4-4 4s-4-1.8-4-4V24z" fill="#007396"/>
  <path d="M28 36h8c2.2 0 4-1.8 4-4v-8c0-2.2-1.8-4-4-4h-8v16zm4-12h4c1.1 0 2 .9 2 2v8c0 1.1-.9 2-2 2h-4V24z" fill="#ED8B00"/>
</svg>
