<svg width="64" height="64" viewBox="0 0 64 64" fill="none" xmlns="http://www.w3.org/2000/svg">
  <rect width="64" height="64" rx="12" fill="#339933"/>
  <path d="M32 8c-1.1 0-2 .9-2 2v44c0 1.1.9 2 2 2s2-.9 2-2V10c0-1.1-.9-2-2-2z" fill="white"/>
  <path d="M20 20c0-1.1.9-2 2-2h20c1.1 0 2 .9 2 2s-.9 2-2 2H22c-1.1 0-2-.9-2-2z" fill="white"/>
  <path d="M20 32c0-1.1.9-2 2-2h20c1.1 0 2 .9 2 2s-.9 2-2 2H22c-1.1 0-2-.9-2-2z" fill="white"/>
  <path d="M20 44c0-1.1.9-2 2-2h20c1.1 0 2 .9 2 2s-.9 2-2 2H22c-1.1 0-2-.9-2-2z" fill="white"/>
</svg>
