<svg width="400" height="250" viewBox="0 0 400 250" fill="none" xmlns="http://www.w3.org/2000/svg">
  <!-- Background -->
  <rect width="400" height="250" fill="#1F2937"/>
  
  <!-- Header -->
  <rect width="400" height="60" fill="#111827"/>
  <circle cx="30" cy="30" r="8" fill="#EF4444"/>
  <circle cx="50" cy="30" r="8" fill="#F59E0B"/>
  <circle cx="70" cy="30" r="8" fill="#10B981"/>
  
  <!-- Navigation -->
  <rect x="100" y="20" width="60" height="20" rx="4" fill="#374151"/>
  <rect x="170" y="20" width="80" height="20" rx="4" fill="#374151"/>
  <rect x="260" y="20" width="70" height="20" rx="4" fill="#10B981"/>
  
  <!-- Main Content -->
  <rect x="20" y="80" width="120" height="150" rx="8" fill="#374151"/>
  <rect x="30" y="90" width="100" height="60" rx="4" fill="#6B7280"/>
  <rect x="30" y="160" width="80" height="12" rx="2" fill="#9CA3AF"/>
  <rect x="30" y="180" width="60" height="12" rx="2" fill="#9CA3AF"/>
  <rect x="30" y="200" width="90" height="20" rx="4" fill="#10B981"/>
  
  <!-- Product Grid -->
  <rect x="160" y="80" width="80" height="60" rx="4" fill="#374151"/>
  <rect x="250" y="80" width="80" height="60" rx="4" fill="#374151"/>
  <rect x="340" y="80" width="40" height="60" rx="4" fill="#374151"/>
  
  <rect x="160" y="150" width="80" height="60" rx="4" fill="#374151"/>
  <rect x="250" y="150" width="80" height="60" rx="4" fill="#374151"/>
  <rect x="340" y="150" width="40" height="60" rx="4" fill="#374151"/>
  
  <!-- Shopping Cart Icon -->
  <circle cx="350" cy="100" r="12" fill="#10B981"/>
  <path d="M345 95h10l-2 10h-6z" fill="white"/>
  
  <!-- Title -->
  <text x="200" y="35" text-anchor="middle" fill="#10B981" font-family="Arial, sans-serif" font-size="14" font-weight="bold">E-Commerce Platform</text>
</svg>
