<svg width="400" height="250" viewBox="0 0 400 250" fill="none" xmlns="http://www.w3.org/2000/svg">
  <!-- Background -->
  <rect width="400" height="250" fill="#111827"/>
  
  <!-- Header -->
  <rect width="400" height="60" fill="#1F2937"/>
  <rect x="20" y="20" width="100" height="20" rx="4" fill="#10B981"/>
  
  <!-- Navigation -->
  <rect x="200" y="22" width="40" height="16" rx="2" fill="#6B7280"/>
  <rect x="250" y="22" width="40" height="16" rx="2" fill="#6B7280"/>
  <rect x="300" y="22" width="40" height="16" rx="2" fill="#6B7280"/>
  <rect x="350" y="22" width="40" height="16" rx="2" fill="#6B7280"/>
  
  <!-- Hero Section -->
  <circle cx="120" cy="130" r="40" fill="#374151"/>
  <circle cx="120" cy="130" r="25" fill="#10B981"/>
  
  <!-- Profile Info -->
  <rect x="180" y="100" width="120" height="16" rx="2" fill="#10B981"/>
  <rect x="180" y="125" width="100" height="12" rx="2" fill="#9CA3AF"/>
  <rect x="180" y="145" width="80" height="12" rx="2" fill="#9CA3AF"/>
  <rect x="180" y="165" width="90" height="20" rx="4" fill="#10B981"/>
  
  <!-- Skills Section -->
  <rect x="20" y="190" width="60" height="20" rx="4" fill="#3B82F6"/>
  <rect x="90" y="190" width="50" height="20" rx="4" fill="#EF4444"/>
  <rect x="150" y="190" width="65" height="20" rx="4" fill="#F59E0B"/>
  <rect x="225" y="190" width="55" height="20" rx="4" fill="#8B5CF6"/>
  <rect x="290" y="190" width="60" height="20" rx="4" fill="#06B6D4"/>
  
  <!-- Floating particles -->
  <circle cx="350" cy="100" r="3" fill="#10B981" opacity="0.6"/>
  <circle cx="330" cy="140" r="2" fill="#3B82F6" opacity="0.4"/>
  <circle cx="370" cy="160" r="4" fill="#EF4444" opacity="0.3"/>
  <circle cx="320" cy="180" r="2" fill="#F59E0B" opacity="0.5"/>
  
  <!-- Code elements -->
  <rect x="320" y="110" width="60" height="30" rx="4" fill="#1F2937" stroke="#10B981" stroke-width="1"/>
  <text x="350" y="125" text-anchor="middle" fill="#10B981" font-family="monospace" font-size="8">&lt;/&gt;</text>
  
  <!-- Title -->
  <text x="200" y="35" text-anchor="middle" fill="#10B981" font-family="Arial, sans-serif" font-size="14" font-weight="bold">Portfolio Website</text>
</svg>
