<svg width="400" height="250" viewBox="0 0 400 250" fill="none" xmlns="http://www.w3.org/2000/svg">
  <!-- Background -->
  <rect width="400" height="250" fill="#0F172A"/>
  
  <!-- Header -->
  <rect width="400" height="50" fill="#1E293B"/>
  <circle cx="25" cy="25" r="6" fill="#3B82F6"/>
  <rect x="50" y="18" width="80" height="14" rx="2" fill="#64748B"/>
  <rect x="320" y="15" width="60" height="20" rx="10" fill="#3B82F6"/>
  
  <!-- Sidebar -->
  <rect x="20" y="70" width="100" height="160" rx="8" fill="#1E293B"/>
  <rect x="30" y="80" width="80" height="12" rx="2" fill="#3B82F6"/>
  <rect x="30" y="100" width="60" height="8" rx="2" fill="#64748B"/>
  <rect x="30" y="115" width="70" height="8" rx="2" fill="#64748B"/>
  <rect x="30" y="130" width="55" height="8" rx="2" fill="#64748B"/>
  
  <!-- Task Columns -->
  <rect x="140" y="70" width="70" height="160" rx="8" fill="#1E293B"/>
  <rect x="220" y="70" width="70" height="160" rx="8" fill="#1E293B"/>
  <rect x="300" y="70" width="70" height="160" rx="8" fill="#1E293B"/>
  
  <!-- Column Headers -->
  <rect x="145" y="80" width="60" height="12" rx="2" fill="#EF4444"/>
  <rect x="225" y="80" width="60" height="12" rx="2" fill="#F59E0B"/>
  <rect x="305" y="80" width="60" height="12" rx="2" fill="#10B981"/>
  
  <!-- Task Cards -->
  <rect x="145" y="100" width="60" height="25" rx="4" fill="#374151"/>
  <rect x="145" y="130" width="60" height="25" rx="4" fill="#374151"/>
  <rect x="145" y="160" width="60" height="25" rx="4" fill="#374151"/>
  
  <rect x="225" y="100" width="60" height="25" rx="4" fill="#374151"/>
  <rect x="225" y="130" width="60" height="25" rx="4" fill="#374151"/>
  
  <rect x="305" y="100" width="60" height="25" rx="4" fill="#374151"/>
  <rect x="305" y="130" width="60" height="25" rx="4" fill="#374151"/>
  <rect x="305" y="160" width="60" height="25" rx="4" fill="#374151"/>
  
  <!-- Task indicators -->
  <circle cx="150" cy="112" r="3" fill="#3B82F6"/>
  <circle cx="150" cy="142" r="3" fill="#EF4444"/>
  <circle cx="230" cy="112" r="3" fill="#F59E0B"/>
  <circle cx="310" cy="112" r="3" fill="#10B981"/>
  
  <!-- Title -->
  <text x="200" y="35" text-anchor="middle" fill="#3B82F6" font-family="Arial, sans-serif" font-size="14" font-weight="bold">Task Management Dashboard</text>
</svg>
